<svg xmlns="http://www.w3.org/2000/svg" width="257" height="28" viewBox="0 0 257 28" fill="none"><g clip-path="url(#clip0_0_579)"><path d="M49.3583 -3.69316e-05H33.2121L25.1389 14.0155L20.6504 21.802H11.6733L7.18476 14.0155L11.6733 6.22911H20.6504L23.6271 11.4149L27.2273 5.18575L24.235 -3.69316e-05H8.08872L0 14.0155L8.08872 28.0311H24.235L32.3081 14.0155L36.7966 6.22911H45.7737L50.2623 14.0155L45.7737 21.802H36.7966L33.8043 16.6162L30.2197 22.8454L33.2121 28.0155H49.3583L57.447 13.9999L49.3583 -0.015625" fill="#5F4DD1"></path><path d="M85.8287 7.27265C84.952 6.35726 83.8891 5.64035 82.7116 5.1703C81.2761 4.61749 79.7455 4.3529 78.2075 4.39166H71.5215V23.6086H78.2075C79.7499 23.6484 81.2838 23.3674 82.7116 22.7832C83.8865 22.2868 84.9472 21.5554 85.8287 20.6341C86.6659 19.7672 87.3181 18.7394 87.7456 17.613C88.1463 16.5415 88.3573 15.4086 88.3691 14.2648V13.6887C88.3646 12.5138 88.1536 11.3489 87.7456 10.2471C87.3156 9.13574 86.6633 8.12366 85.8287 7.27265ZM84.7221 16.6164C84.4362 17.4212 83.9789 18.1544 83.3818 18.7654C82.776 19.3805 82.0489 19.863 81.2466 20.1825C80.3442 20.5387 79.3803 20.7133 78.4101 20.6964H74.5761V7.22593H78.4101C79.377 7.21447 80.338 7.37802 81.2466 7.70868C82.0471 8.00987 82.7748 8.47691 83.3818 9.0791C83.9779 9.67281 84.4356 10.3906 84.7221 11.1814C85.045 12.0694 85.2034 13.0087 85.1896 13.9534C85.2028 14.8777 85.0443 15.7965 84.7221 16.6631V16.6164Z" fill="white"></path><path d="M101.412 10.0133C100.283 9.31024 98.9691 8.96298 97.6403 9.01663C96.5693 8.98786 95.505 9.1952 94.5233 9.62394C93.691 10.0126 92.9523 10.5756 92.357 11.2747C91.7771 11.9555 91.3375 12.744 91.0634 13.5951C90.7772 14.4539 90.6299 15.3528 90.627 16.258V16.7563C90.6311 17.6512 90.7784 18.5397 91.0634 19.3882C91.3375 20.2392 91.7771 21.0277 92.357 21.7085C92.9593 22.4199 93.7162 22.9845 94.5701 23.3592C95.5511 23.7934 96.6142 24.0112 97.6871 23.9977C98.7233 24.0084 99.7512 23.8125 100.711 23.4215C101.567 23.0591 102.322 22.4923 102.908 21.7708C103.494 21.0493 103.891 20.1928 104.061 19.2791H101.225C101.065 19.9275 100.657 20.487 100.087 20.8364C99.3564 21.2544 98.5291 21.4742 97.6871 21.4742C96.8451 21.4742 96.0178 21.2544 95.287 20.8364C94.6593 20.408 94.1758 19.8 93.8999 19.0923C93.6812 18.5026 93.5551 17.8828 93.5259 17.2547H104.326V16.04C104.334 14.8617 104.079 13.6965 103.578 12.6295C103.113 11.5738 102.363 10.6681 101.412 10.0133ZM95.3649 12.2246C96.0407 11.8366 96.8064 11.6324 97.5858 11.6324C98.3652 11.6324 99.1309 11.8366 99.8067 12.2246C100.38 12.6073 100.829 13.1484 101.1 13.7819C101.282 14.2256 101.402 14.6918 101.459 15.1679H93.6661C93.738 14.759 93.8476 14.3576 93.9934 13.9688C94.2625 13.2616 94.741 12.6532 95.3649 12.2246Z" fill="white"></path><path d="M113.352 21.0545H112.744L109.097 9.48389H105.918L110.5 23.515H111.357H112.666H113.524H114.77H115.503L119.493 9.48389H116.531L113.352 21.0545Z" fill="white"></path><path d="M139.02 7.10117C138.146 6.13996 137.086 5.36642 135.903 4.82755C133.111 3.68607 129.983 3.68607 127.191 4.82755C126.004 5.35821 124.941 6.13291 124.074 7.10117C123.264 8.01286 122.635 9.06972 122.219 10.2157C121.822 11.3145 121.616 12.4734 121.611 13.6418V14.2647C121.621 15.3792 121.816 16.4844 122.188 17.535C122.596 18.6979 123.209 19.7789 123.996 20.7274C124.855 21.733 125.917 22.5451 127.113 23.1101C128.515 23.7059 130.023 24.013 131.547 24.013C133.071 24.013 134.579 23.7059 135.981 23.1101C137.181 22.5518 138.245 21.7387 139.098 20.7274C139.88 19.775 140.491 18.6951 140.906 17.535C141.295 16.4878 141.5 15.3816 141.514 14.2647V13.6885C141.511 12.5186 141.3 11.3584 140.89 10.2625C140.475 9.09868 139.84 8.02545 139.02 7.10117ZM137.851 16.6941C137.563 17.5349 137.107 18.3084 136.511 18.9677C135.919 19.6333 135.191 20.1644 134.376 20.525C133.495 20.9231 132.537 21.12 131.57 21.1012C130.599 21.1181 129.636 20.9214 128.749 20.525C127.938 20.1587 127.211 19.6285 126.614 18.9677C126.018 18.3084 125.562 17.5349 125.274 16.6941C124.966 15.8297 124.812 14.9176 124.822 13.9999C124.827 13.026 125.006 12.0608 125.352 11.1501C125.64 10.3093 126.096 9.53578 126.692 8.8765C127.286 8.21299 128.014 7.68231 128.827 7.31921C129.717 6.93519 130.679 6.74409 131.648 6.75857C132.613 6.74247 133.569 6.93369 134.454 7.31921C135.267 7.67479 135.991 8.20674 136.573 8.8765C137.125 9.55171 137.547 10.3224 137.82 11.1501C138.139 12.0499 138.297 12.9987 138.288 13.9532C138.297 14.8875 138.139 15.8159 137.82 16.6941H137.851Z" fill="white"></path><path d="M157.862 11.1503C157.272 10.4892 156.55 9.95876 155.742 9.59298C154.885 9.21046 153.954 9.01917 153.015 9.03238C151.995 9.0231 150.989 9.26369 150.085 9.73313C149.185 10.2273 148.444 10.9673 147.95 11.8666C147.76 12.2201 147.604 12.5902 147.482 12.9723V9.46842H145.066V27.9845H148.183V21.5062C148.681 22.2805 149.374 22.9093 150.194 23.3283C151.481 23.9721 152.946 24.1685 154.358 23.8865C155.769 23.6044 157.046 22.86 157.986 21.771C158.586 21.1052 159.047 20.327 159.342 19.4818C159.656 18.5807 159.814 17.6327 159.81 16.6786V16.1803C159.816 15.2223 159.663 14.2699 159.358 13.3616C158.999 12.5391 158.492 11.7895 157.862 11.1503ZM156.07 19.0301C155.724 19.738 155.183 20.3324 154.511 20.7432C153.842 21.1692 153.06 21.3861 152.267 21.3661C151.536 21.3665 150.815 21.1958 150.163 20.8677C149.519 20.5388 148.979 20.0374 148.604 19.4195C148.185 18.7366 147.974 17.9466 147.996 17.1458V16.0246C147.966 15.2004 148.171 14.3845 148.589 13.6731C148.955 13.0205 149.494 12.4817 150.147 12.1158C150.802 11.7606 151.537 11.5784 152.282 11.5863C153.079 11.5659 153.864 11.7769 154.542 12.1937C155.209 12.6115 155.748 13.204 156.101 13.9066C156.469 14.6958 156.65 15.559 156.631 16.4295C156.65 17.3284 156.458 18.2192 156.07 19.0301Z" fill="white"></path><path d="M172.559 16.5071C171.447 15.7403 170.15 15.2834 168.803 15.1834L167.416 15.0588C166.81 15.037 166.222 14.8484 165.717 14.5138C165.547 14.3752 165.412 14.1988 165.323 13.9987C165.233 13.7985 165.192 13.5803 165.203 13.3614C165.197 13.1011 165.257 12.8435 165.377 12.6122C165.497 12.381 165.672 12.1835 165.888 12.0377C166.513 11.6899 167.215 11.5074 167.93 11.5074C168.645 11.5074 169.348 11.6899 169.972 12.0377C170.191 12.1925 170.372 12.3947 170.501 12.6294C170.631 12.864 170.706 13.1249 170.72 13.3925H173.51C173.535 12.7664 173.406 12.1437 173.134 11.579C172.862 11.0143 172.456 10.5247 171.951 10.1533C170.76 9.36059 169.344 8.97286 167.914 9.04768C166.939 9.02914 165.97 9.20383 165.062 9.56161C164.293 9.86529 163.624 10.3776 163.13 11.041C162.644 11.7332 162.393 12.5628 162.413 13.4081C162.391 13.945 162.495 14.4796 162.717 14.9691C162.939 15.4585 163.272 15.8893 163.691 16.2268C164.676 16.9827 165.864 17.4273 167.104 17.5037L168.491 17.6283C169.224 17.6581 169.937 17.8723 170.564 18.2512C170.759 18.3901 170.917 18.5752 171.023 18.7899C171.129 19.0046 171.18 19.2422 171.172 19.4815C171.166 19.7706 171.088 20.0535 170.943 20.304C170.799 20.5545 170.593 20.7644 170.346 20.9142C169.656 21.3276 168.859 21.5281 168.055 21.4904C167.177 21.5708 166.3 21.3392 165.577 20.8363C165.349 20.6669 165.16 20.4519 165.02 20.2053C164.881 19.9586 164.794 19.6856 164.766 19.4036H161.945C161.948 20.0454 162.101 20.6777 162.39 21.2506C162.679 21.8236 163.098 22.3215 163.613 22.7051C164.909 23.5836 166.461 24.0055 168.024 23.9042C169.089 23.9252 170.149 23.7346 171.141 23.3436C171.967 23.0268 172.69 22.4878 173.229 21.7863C173.743 21.1058 174.012 20.2717 173.993 19.4192C174.01 18.8536 173.889 18.2923 173.639 17.7846C173.389 17.2769 173.018 16.8382 172.559 16.5071Z" fill="white"></path><path d="M185.635 16.258H192.15V19.9643C191.603 20.5123 190.971 20.9697 190.28 21.3191C189.161 21.8423 187.95 22.1366 186.716 22.1848C185.482 22.2329 184.251 22.0339 183.095 21.5994C182.174 21.2197 181.349 20.6399 180.679 19.902C179.986 19.1457 179.456 18.2553 179.121 17.2858C178.767 16.2001 178.593 15.0638 178.606 13.922C178.597 12.8277 178.766 11.739 179.105 10.6984C179.424 9.75932 179.916 8.88791 180.555 8.12893C181.181 7.40233 181.964 6.82729 182.846 6.44708C183.799 6.03253 184.83 5.82547 185.869 5.83972C186.88 5.83519 187.881 6.03103 188.815 6.41591C189.738 6.78942 190.541 7.40994 191.135 8.20934C191.729 9.00875 192.091 9.95616 192.181 10.9476H194.176C194.089 9.64905 193.647 8.39923 192.898 7.3347C192.156 6.30626 191.171 5.47709 190.03 4.92092C188.757 4.36615 187.383 4.07983 185.994 4.07983C184.605 4.07983 183.231 4.36615 181.957 4.92092C180.838 5.4256 179.843 6.16987 179.043 7.10112C178.264 8.02421 177.657 9.07901 177.251 10.2157C176.847 11.3561 176.642 12.5568 176.643 13.7663V14.2335C176.639 15.5169 176.855 16.7915 177.282 18.0021C177.695 19.1491 178.325 20.2064 179.136 21.1167C180.01 22.0467 181.073 22.7794 182.253 23.2658C185.049 24.3449 188.155 24.3002 190.919 23.1412C192.147 22.586 193.218 21.7352 194.036 20.6651V16.3358H195.735V14.6695H185.651L185.635 16.258Z" fill="white"></path><path d="M201.97 11.041C201.328 11.8078 200.922 12.7434 200.801 13.7352V9.74852H199.242V23.5149H201.206V15.9154C201.129 15.2972 201.195 14.6696 201.399 14.0809C201.603 13.4921 201.938 12.9578 202.381 12.5188C202.823 12.0799 203.36 11.7479 203.951 11.5484C204.541 11.349 205.17 11.2873 205.788 11.3681H206.598V9.59278H206.162C205.4 9.52432 204.633 9.61802 203.91 9.86766C203.188 10.1173 202.526 10.5172 201.97 11.041Z" fill="white"></path><path d="M221.092 11.5239C220.454 10.8295 219.679 10.273 218.817 9.88877C217.829 9.47757 216.77 9.26587 215.7 9.26587C214.63 9.26587 213.571 9.47757 212.583 9.88877C210.875 10.6617 209.542 12.0779 208.874 13.8287C208.548 14.6628 208.379 15.5496 208.375 16.4449V16.8031C208.38 17.6918 208.544 18.5725 208.858 19.4038C209.181 20.2546 209.662 21.0366 210.276 21.7086C210.91 22.4062 211.679 22.9679 212.536 23.3593C214.535 24.1696 216.771 24.1696 218.77 23.3593C219.62 22.9833 220.383 22.4387 221.016 21.7588C221.648 21.0789 222.135 20.2776 222.448 19.4038C222.758 18.5717 222.917 17.6909 222.916 16.8031V16.4449C222.917 15.5506 222.753 14.6637 222.433 13.8287C222.147 12.9777 221.691 12.1936 221.092 11.5239ZM220.438 19.4194C220.037 20.2545 219.411 20.961 218.63 21.4594C217.756 21.9848 216.751 22.2496 215.731 22.2225C214.717 22.2492 213.716 21.9844 212.848 21.4594C212.071 20.9567 211.445 20.2513 211.04 19.4194C210.617 18.5462 210.403 17.5864 210.417 16.6163C210.399 15.6389 210.618 14.6719 211.056 13.7976C211.464 12.9665 212.103 12.2695 212.895 11.7887C213.751 11.28 214.735 11.0261 215.731 11.0567C216.737 11.0262 217.731 11.2799 218.599 11.7887C219.378 12.2807 220.008 12.9751 220.422 13.7976C220.854 14.6741 221.072 15.6396 221.061 16.6163C221.07 17.5876 220.851 18.5476 220.422 19.4194H220.438Z" fill="white"></path><path d="M236.084 18.0333C236.135 19.13 235.755 20.2031 235.024 21.0233C234.658 21.4004 234.216 21.6954 233.727 21.8888C233.238 22.0821 232.713 22.1692 232.188 22.1445C231.698 22.1704 231.209 22.089 230.754 21.9061C230.299 21.7231 229.889 21.4431 229.554 21.0856C228.884 20.2918 228.544 19.2721 228.603 18.2357V9.71737H226.655V17.8464C226.559 19.4429 227.022 21.0233 227.964 22.3159C228.43 22.849 229.013 23.267 229.667 23.5372C230.321 23.8074 231.03 23.9224 231.736 23.8731H231.814C232.788 23.9096 233.75 23.6489 234.572 23.1256C235.324 22.6019 235.9 21.8637 236.224 21.0077C236.318 20.7585 236.38 20.4471 236.458 20.1512V23.4682H238.017V9.67065H236.069L236.084 18.0333Z" fill="white"></path><path d="M256.548 13.7509C256.253 12.9119 255.804 12.1354 255.223 11.4617C254.63 10.8033 253.909 10.2733 253.103 9.90443C252.246 9.50144 251.308 9.29905 250.36 9.31266C249.274 9.28608 248.199 9.54374 247.243 10.0601C246.331 10.5567 245.583 11.3091 245.093 12.2248C244.91 12.5775 244.764 12.948 244.656 13.3304V9.7487H243.098V28.0001H245.046V21.039C245.558 21.9584 246.32 22.7142 247.243 23.2192C248.167 23.7174 249.202 23.9746 250.251 23.9667C251.176 23.979 252.093 23.7903 252.938 23.4139C253.783 23.0375 254.536 22.4822 255.145 21.7865C255.728 21.1113 256.182 20.3355 256.485 19.4973C256.799 18.6338 256.957 17.7218 256.953 16.8032V16.445C256.969 15.5307 256.832 14.6202 256.548 13.7509ZM254.444 19.4661C254.07 20.3137 253.453 21.0313 252.67 21.5276C251.888 22.0239 250.975 22.2767 250.049 22.2537C249.156 22.2627 248.276 22.0429 247.493 21.6152C246.738 21.2219 246.111 20.6224 245.685 19.8866C245.225 19.1153 244.993 18.2301 245.015 17.3327V16.0557C244.989 15.1185 245.221 14.1922 245.685 13.3772C246.115 12.6361 246.74 12.0273 247.493 11.6174C248.28 11.2021 249.158 10.9881 250.049 10.9945C250.987 10.9723 251.91 11.2328 252.698 11.742C253.447 12.2416 254.046 12.9363 254.428 13.7509C254.861 14.6429 255.075 15.6252 255.051 16.6163C255.064 17.5997 254.857 18.5734 254.444 19.4661Z" fill="white"></path></g><defs><clipPath id="clip0_0_579"><rect width="257" height="28" fill="white"></rect></clipPath></defs></svg>